<svg id="e3b61a59-a2b9-4f1a-bc37-9d546182a2b5" data-name="Layer 1" xmlns="http://www.w3.org/2000/svg" width="1025.5" height="660.65678" viewBox="0 0 1025.5 660.65678"><title>designer_mindset</title><circle cx="90.5" cy="515.65678" r="12" fill="#d0cde1"/><circle cx="60.5" cy="554.65678" r="20" fill="#009688"/><circle cx="295.00747" cy="103.0452" r="40.20986" fill="#2f2e41"/><path d="M439.4131,466.28962l6.09626,12.19252s19.508,31.70053,6.09625,35.35829-17.67914-23.7754-17.67914-23.7754l-2.4385-14.631Z" transform="translate(-87.25 -119.67161)" fill="#a0616a"/><polygon points="327.778 284.436 343.019 324.671 358.259 352.714 339.361 364.907 324.12 338.083 305.832 296.019 327.778 284.436" fill="#d0cde1"/><path d="M371.74465,592.48214,341.26337,624.7923l-53.64706,90.83422-23.16578-7.3155,27.43316-54.25669s15.85027-41.45454,23.7754-46.94118,21.3369-41.45454,21.3369-41.45454l14.631-11.58289Z" transform="translate(-87.25 -119.67161)" fill="#a0616a"/><path d="M434.5361,610.16128l2.4385,10.36364s7.92513,32.31016,20.11765,46.94118l29.262,50.59893,21.94652-7.31551L465.01738,608.33241Z" transform="translate(-87.25 -119.67161)" fill="#a0616a"/><circle cx="301.86898" cy="117.09395" r="32.91979" fill="#a0616a"/><path d="M363.20989,252.92064l-4.26738,35.35829,27.43316,13.41176s0-30.48128,7.31551-38.40641Z" transform="translate(-87.25 -119.67161)" fill="#a0616a"/><path d="M277.25267,480.92064l-3.04812,10.36364S254.0869,530.91,271.15642,530.91s20.11764-36.57754,20.11764-36.57754l1.82888-9.14439Z" transform="translate(-87.25 -119.67161)" fill="#a0616a"/><path d="M417.46658,439.4661l-4.26738,29.87165,51.81818,109.123,3.04813,31.70053L371.135,622.3538l-21.3369-59.13369-34.139,43.893,19.508-45.1123s6.09626-30.48128,4.26738-38.40641,1.21925-47.5508,6.70588-57.30482S417.46658,439.4661,417.46658,439.4661Z" transform="translate(-87.25 -119.67161)" fill="#2f2e41"/><path d="M291.27406,715.62652l-29.262-9.754-9.14438,14.631s-17.67915,4.877-17.06952,17.67914S232.75,772.93134,232.75,772.93134l12.80214,1.21925,4.877-24.99465,24.99466,29.87165s44.50267,2.43851,46.33155-4.877S290.05481,758.91,290.05481,758.91L284.56818,732.696Z" transform="translate(-87.25 -119.67161)" fill="#2f2e41"/><path d="M510.12968,707.09176l-26.82353,8.53476v6.09626s-7.92513,12.19251-6.70588,22.55615,6.70588,35.35829,6.70588,35.35829h14.02139l-.60963-23.16578,28.04279,23.16578s49.9893-3.65776,49.9893-11.58289-38.40642-13.41176-38.40642-13.41176Z" transform="translate(-87.25 -119.67161)" fill="#2f2e41"/><path d="M388.20455,294.37519s-24.99466-24.99466-36.57754-18.8984V286.45s-17.06952,7.92514-17.67915,20.11765-18.28877,123.14438-18.28877,123.14438L274.20455,574.19337s12.80213,20.11765,59.74331-2.4385l29.262-99.369S332.119,584.557,347.35963,582.72813,422.34358,441.9046,422.34358,441.9046L418.0762,376.065s9.754-28.65241-9.754-48.16043Z" transform="translate(-87.25 -119.67161)" fill="#d0cde1"/><path d="M345.53075,298.03294s-10.36364,3.65775-17.67915,19.508-43.893,127.41177-43.893,127.41177l-9.754,39.62566,27.43315,6.70589,13.41177-40.84492,49.9893-92.6631S372.9639,309.0062,345.53075,298.03294Z" transform="translate(-87.25 -119.67161)" fill="#d0cde1"/><path d="M347.93984,210.50339c.61653-7.525,4.21921-15.23828,10.88206-18.78975-3.34565-6.72-6.33577-14.39005-4.13028-21.56549a16.45825,16.45825,0,0,1,12.39851-11.09427,32.30127,32.30127,0,0,1,9.63294.12468l15.02176,1.70382c4.87329.55275,9.93457,1.16941,14.07945,3.79133a16.30915,16.30915,0,0,1,1.88363,26.17569c10.51,8.40666,17.53361,14.78817,22.31572,27.36843-8.76331-7.05484-17.15018-9.55319-28.3839-10.16123a27.05512,27.05512,0,0,0-28.42565,24.78976c-.28979,3.51049.09752,7.12527-.92408,10.49629s-4.09966,6.52938-7.58744,6.03683c.48372.06832,3.46164-8.87382,1.36518-13.00134l-.03287-.06647a3.9288,3.9288,0,0,0-2.13475-1.83174,6.14814,6.14814,0,0,0-8.17236,4.27581c-1.16614,4.47866-3.03214,10.19346-4.662,8.67651-2.13448-1.9866-1.23653-19.50291-1.81251-22.21835A50.98323,50.98323,0,0,1,347.93984,210.50339Z" transform="translate(-87.25 -119.67161)" fill="#2f2e41"/><path d="M358.98726,191.59339s33.03964,2.15476,48.8412-.71825" transform="translate(-87.25 -119.67161)" fill="#d0cde1"/><path d="M360.861,187.17242c-3.3458-6.71995-6.33588-14.39-4.1303-21.56547a16.29084,16.29084,0,0,1,5.76331-8.10106,16.49623,16.49623,0,0,0-8.81144,9.92993c-2.20558,7.17546.7845,14.84553,4.1303,21.56547C360.46658,188.60513,354.19812,190.7239,360.861,187.17242Z" transform="translate(-87.25 -119.67161)" fill="#2f2e41"/><polygon points="284.19 238.409 236.639 322.538 218.35 368.26 243.955 324.367 284.19 238.409" opacity="0.2"/><rect x="64.90137" y="566.65678" width="2" height="93" fill="#3f3d56"/><path d="M153.75,688.32839a21,21,0,1,1,21-21A21.0239,21.0239,0,0,1,153.75,688.32839Zm0-40a19,19,0,1,0,19,19A19.02162,19.02162,0,0,0,153.75,648.32839Z" transform="translate(-87.25 -119.67161)" fill="#3f3d56"/><path d="M170.75,652.32839a13,13,0,1,1,13-13A13.01474,13.01474,0,0,1,170.75,652.32839Zm0-24a11,11,0,1,0,11,11A11.01245,11.01245,0,0,0,170.75,628.32839Z" transform="translate(-87.25 -119.67161)" fill="#3f3d56"/><circle cx="494.43204" cy="265.865" r="12" fill="#d0cde1"/><circle cx="450.0543" cy="244.61374" r="20" fill="#009688"/><path d="M545.355,389.70876a21.0695,21.0695,0,1,1,4.40137-.46484A21.1808,21.1808,0,0,1,545.355,389.70876Zm.08057-40.01318a19.17672,19.17672,0,0,0-3.98242.41992,19.00005,19.00005,0,0,0,7.88818,37.17236h0a19.00415,19.00415,0,0,0-3.90576-37.59228Z" transform="translate(-87.25 -119.67161)" fill="#3f3d56"/><path d="M576.29,392.5237a13.04195,13.04195,0,1,1,2.72461-.2876h0A13.12689,13.12689,0,0,1,576.29,392.5237Zm.02832-24.00586a11.0012,11.0012,0,1,0,10.75781,8.71826A10.99622,10.99622,0,0,0,576.31836,368.51784Z" transform="translate(-87.25 -119.67161)" fill="#3f3d56"/><circle cx="790.96155" cy="55.35454" r="12" fill="#d0cde1"/><circle cx="825.18415" cy="20.00183" r="20" fill="#009688"/><path d="M905.69531,166.95046a21.01,21.01,0,0,1-20.87988-23.37891h0a20.99979,20.99979,0,1,1,20.87988,23.37891Zm-18.89355-23.15234a19.00031,19.00031,0,1,0,7.05078-12.71875,19.02247,19.02247,0,0,0-7.05078,12.71875Z" transform="translate(-87.25 -119.67161)" fill="#3f3d56"/><path d="M885.64453,184.846a13.20166,13.20166,0,0,1-1.49707-.085,13.015,13.015,0,0,1-11.44433-14.38867h0a12.99858,12.99858,0,1,1,12.9414,14.47363ZM874.68945,170.5989a11.00092,11.00092,0,1,0,12.17481-9.6836,11.01391,11.01391,0,0,0-12.17481,9.6836Z" transform="translate(-87.25 -119.67161)" fill="#3f3d56"/><rect x="586.5" y="136.65678" width="204" height="232" fill="#d0cde1"/><rect x="785.5" y="136.65678" width="209" height="232" fill="#3f3d56"/><rect x="586.5" y="168.65678" width="204" height="38" fill="#009688"/><rect x="790.5" y="168.65678" width="204" height="38" fill="#d0cde1"/><rect x="586.5" y="295.65678" width="204" height="38" fill="#3f3d56"/><rect x="790.5" y="295.65678" width="204" height="38" fill="#009688"/><path d="M872.75,268.32839v208a104,104,0,0,0,0-208Z" transform="translate(-87.25 -119.67161)" fill="#d0cde1"/><path d="M768.75,372.32839a104,104,0,0,0,104,104v-208A104,104,0,0,0,768.75,372.32839Z" transform="translate(-87.25 -119.67161)" fill="#009688"/><path d="M818.75,372.32839a54,54,0,0,0,54,54v-108A54,54,0,0,0,818.75,372.32839Z" transform="translate(-87.25 -119.67161)" fill="#3f3d56"/><path d="M926.75,372.32839a54,54,0,0,1-54,54v-108A54,54,0,0,1,926.75,372.32839Z" transform="translate(-87.25 -119.67161)" fill="#009688"/><path d="M1112.75,529.32839h-470v-314h470Zm-468-2h466v-310h-466Z" transform="translate(-87.25 -119.67161)" fill="#3f3d56"/><rect y="658.65678" width="581" height="2" fill="#3f3d56"/></svg>