<svg data-name="Layer 1" xmlns="http://www.w3.org/2000/svg" width="1025.5" height="660.657" viewBox="0 0 1025.5 660.657"><circle cx="90.5" cy="515.657" r="12" fill="#d0cde1"/><circle cx="60.5" cy="554.657" r="20" fill="#009688"/><circle cx="295.007" cy="103.045" r="40.21" fill="#2f2e41"/><path d="M352.163 346.618l6.096 12.193s19.508 31.7 6.097 35.358-17.68-23.776-17.68-23.776l-2.438-14.63z" fill="#a0616a"/><path fill="#d0cde1" d="M327.778 284.436l15.241 40.235 15.24 28.043-18.898 12.193-15.241-26.824-18.288-42.064 21.946-11.583z"/><path d="M284.495 472.81l-30.482 32.31-53.647 90.835-23.165-7.316 27.433-54.256s15.85-41.455 23.775-46.941 21.337-41.455 21.337-41.455l14.631-11.583zm62.791 17.68l2.439 10.363s7.925 32.31 20.117 46.941l29.262 50.6 21.947-7.316-43.284-102.417z" fill="#a0616a"/><circle cx="301.869" cy="117.094" r="32.92" fill="#a0616a"/><path d="M275.96 133.249l-4.267 35.358 27.433 13.412s0-30.481 7.315-38.406zm-85.957 228l-3.048 10.364s-20.118 39.625-3.049 39.625 20.118-36.577 20.118-36.577l1.829-9.145z" fill="#a0616a"/><path d="M330.217 319.794l-4.268 29.872 51.818 109.123 3.049 31.7-96.931 12.193-21.337-59.133-34.139 43.893 19.508-45.113s6.096-30.481 4.267-38.406 1.22-47.551 6.706-57.305 71.327-26.824 71.327-26.824zM204.024 595.955l-29.262-9.754-9.144 14.63s-17.68 4.878-17.07 17.68-3.048 34.749-3.048 34.749l12.802 1.219 4.877-24.995 24.995 29.872s44.502 2.438 46.331-4.877-31.7-15.24-31.7-15.24l-5.487-26.215zm218.856-8.535l-26.824 8.535v6.096s-7.925 12.193-6.706 22.556 6.706 35.359 6.706 35.359h14.022l-.61-23.166 28.043 23.166s49.989-3.658 49.989-11.583-38.406-13.412-38.406-13.412z" fill="#2f2e41"/><path d="M300.955 174.704s-24.995-24.995-36.578-18.899v10.973s-17.07 7.926-17.68 20.118S228.41 310.04 228.41 310.04l-41.454 144.482s12.802 20.117 59.743-2.439l29.262-99.369s-31.091 112.171-15.85 110.343 74.984-140.824 74.984-140.824l-4.268-65.84s9.754-28.652-9.754-48.16z" fill="#d0cde1"/><path d="M258.28 178.361s-10.363 3.658-17.678 19.508-43.893 127.412-43.893 127.412l-9.754 39.626 27.433 6.706 13.412-40.845 49.989-92.663s7.925-48.77-19.508-59.744z" fill="#d0cde1"/><path d="M260.69 90.832c.616-7.525 4.22-15.238 10.882-18.79-3.346-6.72-6.336-14.39-4.13-21.565a16.458 16.458 0 0112.398-11.095 32.301 32.301 0 019.633.125l15.022 1.704c4.873.553 9.934 1.17 14.08 3.791a16.31 16.31 0 011.883 26.176c10.51 8.406 17.534 14.788 22.316 27.368-8.764-7.055-17.15-9.553-28.384-10.161a27.055 27.055 0 00-28.426 24.79c-.29 3.51.098 7.125-.924 10.496s-4.1 6.53-7.587 6.037c.483.068 3.461-8.874 1.365-13.001l-.033-.067a3.929 3.929 0 00-2.135-1.832 6.148 6.148 0 00-8.172 4.276c-1.166 4.479-3.032 10.194-4.662 8.677-2.135-1.987-1.237-19.503-1.813-22.219a50.983 50.983 0 01-1.313-14.71z" fill="#2f2e41"/><path d="M271.737 71.922s33.04 2.155 48.841-.718" fill="#d0cde1"/><path d="M273.611 67.5c-3.346-6.72-6.336-14.39-4.13-21.565a16.29 16.29 0 015.763-8.1 16.496 16.496 0 00-8.811 9.93c-2.206 7.175.784 14.845 4.13 21.565 2.654-.396-3.615 1.722 3.048-1.83z" fill="#2f2e41"/><path opacity=".2" d="M284.19 238.409l-47.551 84.129-18.289 45.722 25.605-43.893 40.235-85.958z"/><path fill="#3f3d56" d="M64.901 566.657h2v93h-2z"/><path d="M66.5 568.657a21 21 0 1121-21 21.024 21.024 0 01-21 21zm0-40a19 19 0 1019 19 19.022 19.022 0 00-19-19z" fill="#3f3d56"/><path d="M83.5 532.657a13 13 0 1113-13 13.015 13.015 0 01-13 13zm0-24a11 11 0 1011 11 11.012 11.012 0 00-11-11z" fill="#3f3d56"/><circle cx="494.432" cy="265.865" r="12" fill="#d0cde1"/><circle cx="450.054" cy="244.614" r="20" fill="#009688"/><path d="M458.105 270.037a21.07 21.07 0 114.401-.465 21.18 21.18 0 01-4.401.465zm.08-40.013a19.177 19.177 0 00-3.982.42 19 19 0 007.888 37.172 19.004 19.004 0 00-3.905-37.592z" fill="#3f3d56"/><path d="M489.04 272.852a13.042 13.042 0 112.725-.288 13.127 13.127 0 01-2.725.288zm.028-24.006a11.001 11.001 0 1010.758 8.718 10.996 10.996 0 00-10.758-8.718z" fill="#3f3d56"/><circle cx="790.962" cy="55.355" r="12" fill="#d0cde1"/><circle cx="825.184" cy="20.002" r="20" fill="#009688"/><path d="M818.445 47.279a21.01 21.01 0 01-20.88-23.38 21 21 0 1120.88 23.38zm-18.893-23.152a19 19 0 107.05-12.72 19.022 19.022 0 00-7.05 12.72z" fill="#3f3d56"/><path d="M798.395 65.174a13.202 13.202 0 01-1.498-.085 13.015 13.015 0 01-11.444-14.388 12.999 12.999 0 1112.942 14.473zm-10.956-14.247a11 11 0 1012.175-9.683 11.014 11.014 0 00-12.175 9.683z" fill="#3f3d56"/><path fill="#d0cde1" d="M586.5 136.657h204v232h-204z"/><path fill="#3f3d56" d="M785.5 136.657h209v232h-209z"/><path fill="#009688" d="M586.5 168.657h204v38h-204z"/><path fill="#d0cde1" d="M790.5 168.657h204v38h-204z"/><path fill="#3f3d56" d="M586.5 295.657h204v38h-204z"/><path fill="#009688" d="M790.5 295.657h204v38h-204z"/><path d="M785.5 148.657v208a104 104 0 000-208z" fill="#d0cde1"/><path d="M681.5 252.657a104 104 0 00104 104v-208a104 104 0 00-104 104z" fill="#009688"/><path d="M731.5 252.657a54 54 0 0054 54v-108a54 54 0 00-54 54z" fill="#3f3d56"/><path d="M839.5 252.657a54 54 0 01-54 54v-108a54 54 0 0154 54z" fill="#009688"/><path d="M1025.5 409.657h-470v-314h470zm-468-2h466v-310h-466zM0 658.657h581v2H0z" fill="#3f3d56"/></svg>